<svg xmlns="http://www.w3.org/2000/svg" viewBox="0 0 900 600" width="100%" height="100%">
  <defs>
    <linearGradient id="sky" x1="0%" y1="0%" x2="0%" y2="100%">
      <stop offset="0%" stop-color="#191B1C"/><stop offset="50%" stop-color="#36393B"/><stop offset="100%" stop-color="#696C6E"/>
    </linearGradient>
    <linearGradient id="terracotta" x1="0%" y1="0%" x2="100%" y2="100%">
      <stop offset="0%" stop-color="#C2593F"/>
      <stop offset="100%" stop-color="#803320"/>
    </linearGradient>
    <linearGradient id="sand" x1="0%" y1="0%" x2="0%" y2="100%">
      <stop offset="0%" stop-color="#EFE8DC"/>
      <stop offset="100%" stop-color="#D5CBB9"/>
    </linearGradient>
    <linearGradient id="teak" x1="0%" y1="0%" x2="0%" y2="100%">
      <stop offset="0%" stop-color="#54311C"/>
      <stop offset="100%" stop-color="#2D1A0F"/>
    </linearGradient>
    <pattern id="jali" width="18" height="18" patternUnits="userSpaceOnUse">
      <rect width="18" height="18" fill="#993822"/>
      <circle cx="9" cy="9" r="3.5" fill="#FFE082" opacity="0.85"/>
      <circle cx="0" cy="0" r="2.5" fill="#3D1C13" opacity="0.5"/>
      <circle cx="18" cy="18" r="2.5" fill="#3D1C13" opacity="0.5"/>
    </pattern>
    <pattern id="brick" width="28" height="14" patternUnits="userSpaceOnUse">
      <rect width="28" height="14" fill="#B34B32"/>
      <line x1="0" y1="7" x2="28" y2="7" stroke="#7A2D1B" stroke-width="1.2"/>
      <line x1="0" y1="14" x2="28" y2="14" stroke="#7A2D1B" stroke-width="1.2"/>
      <line x1="14" y1="0" x2="14" y2="7" stroke="#7A2D1B" stroke-width="1.2"/>
      <line x1="0" y1="7" x2="0" y2="14" stroke="#7A2D1B" stroke-width="1.2"/>
    </pattern>
  </defs>

  <!-- Sky -->
  <rect width="900" height="600" fill="url(#sky)"/>

  <!-- Sun or Architectural Glow -->
  <circle cx="680" cy="190" r="90" fill="#FFC837" opacity="0.25"/>

  <!-- Distant Tropical Foliage -->
  <path d="M 0 440 Q 150 410 300 430 T 600 420 T 900 410 L 900 600 L 0 600 Z" fill="#18130E" opacity="0.65"/>
  
  <!-- Architectural Plinth & Ground -->
  <polygon points="50,510 850,510 890,600 10,600" fill="url(#sand)"/>
  <line x1="50" y1="510" x2="850" y2="510" stroke="#9E927C" stroke-width="2"/>

  <!-- Building Elements -->
  
      <!-- Raw Concrete Interlocking Blocks -->
      <rect x="180" y="220" width="280" height="290" fill="#8C8881"/>
      <rect x="380" y="160" width="340" height="240" fill="#635F59"/>
      <!-- Board form texture lines -->
      <g stroke="#4F4B46" stroke-width="1.5">
        <line x1="180" y1="260" x2="460" y2="260"/>
        <line x1="180" y1="300" x2="460" y2="300"/>
        <line x1="180" y1="340" x2="460" y2="340"/>
        <line x1="180" y1="380" x2="460" y2="380"/>
        <line x1="380" y1="200" x2="720" y2="200"/>
        <line x1="380" y1="240" x2="720" y2="240"/>
        <line x1="380" y1="280" x2="720" y2="280"/>
      </g>
      <!-- Deep Recessed Window Slot -->
      <rect x="440" y="280" width="220" height="80" fill="#FFE5A3" opacity="0.6"/>
    

  <!-- Water Reflection / Courtyard Element -->
  <rect x="250" y="540" width="400" height="45" rx="3" fill="#202A36" opacity="0.7"/>
  <ellipse cx="450" cy="550" rx="20" ry="8" fill="#D4AF37"/>

  <!-- Title Badge overlay -->
  <g transform="translate(40, 40)">
    <rect width="260" height="54" rx="3" fill="#141312" opacity="0.85"/>
    <text x="18" y="24" fill="#C2593F" font-family="sans-serif" font-size="10" font-weight="700" letter-spacing="1.5">MINIMALIST INDIAN</text>
    <text x="18" y="44" fill="#F5F2EB" font-family="serif" font-size="16" font-weight="600">Monolith Raw Concrete & Slate</text>
  </g>
</svg>